<?xml version="1.0" encoding="utf-8"?>
<!-- Designed by Vexels.com - 2016 All Rights Reserved - https://vexels.com/terms-and-conditions/  -->

<svg version="1.1" id="Layer_1" xmlns="http://www.w3.org/2000/svg" xmlns:xlink="http://www.w3.org/1999/xlink" x="0px" y="0px"
	 width="1200px" height="1200px" viewBox="0 0 1200 1200" enable-background="new 0 0 1200 1200" xml:space="preserve">
<g>
	<g>
		<path fill-rule="evenodd" clip-rule="evenodd" fill="#1A1413" d="M166.205,281.613l862.896,1.538
			c74.428,0.135,122.013,88.283,120.879,118.855l-19.093,504.257c-1.161,30.569-25.763,55.604-57.28,55.604H139.173
			c-31.49,0-55.283-25.088-57.28-55.604L50.107,428.227C48.08,397.683,74.305,281.423,166.205,281.613z"/>
		<path fill-rule="evenodd" clip-rule="evenodd" fill="#B4B4B4" d="M233.477,264.139H337.18c16.366,0,29.706,13.368,29.706,29.709
			v55.01c0,16.366-13.34,29.706-29.706,29.706H233.477c-16.338,0-29.706-13.34-29.706-29.706v-55.01
			C203.771,277.507,217.139,264.139,233.477,264.139z"/>
		<path fill-rule="evenodd" clip-rule="evenodd" fill="#666264" d="M193.887,300.059h180.615c5.16,0,9.372,4.239,9.372,9.369v121.15
			c0,5.158-4.212,9.372-9.372,9.372H193.887c-5.185,0-9.4-4.215-9.4-9.372v-121.15C184.487,304.298,188.702,300.059,193.887,300.059
			z"/>
		<path fill-rule="evenodd" clip-rule="evenodd" fill="#666264" d="M531.354,159.249h315.349c42.67,0,77.562,34.919,77.562,77.562
			v143.672c0,42.668-34.891,77.587-77.562,77.587H531.354c-42.643,0-77.534-34.919-77.534-77.587V236.811
			C453.82,194.168,488.711,159.249,531.354,159.249z"/>
		<path fill-rule="evenodd" clip-rule="evenodd" fill="#4F494D" d="M154.997,334.084h940.944c29.706,0,54.039,24.305,54.039,54.039
			v553.111c0,29.706-24.333,54.039-54.039,54.039H154.997c-29.706,0-54.039-24.333-54.039-54.039V388.123
			C100.958,358.39,125.291,334.084,154.997,334.084z"/>
		<path fill-rule="evenodd" clip-rule="evenodd" fill="#383135" d="M135.904,334.084h158.959c47.206,0,85.825,38.591,85.825,85.825
			v530.858c0,47.208-38.619,85.825-85.825,85.825H135.904c-47.178,0-85.797-38.616-85.797-85.825V419.909
			C50.107,372.676,88.726,334.084,135.904,334.084z"/>
		<path fill-rule="evenodd" clip-rule="evenodd" fill="#818181" d="M792.663,1040.751c174.946,0,317.619-142.698,317.619-317.644
			c0-174.918-142.673-317.616-317.619-317.616c-174.943,0-317.616,142.698-317.616,317.616
			C475.047,898.052,617.72,1040.751,792.663,1040.751z"/>
		<path fill-rule="evenodd" clip-rule="evenodd" fill="#666264" d="M792.663,1003.293c161.307,0,292.883-131.573,292.883-292.88
			c0-161.334-131.576-292.907-292.883-292.907c-161.334,0-292.88,131.573-292.88,292.907
			C499.784,871.72,631.329,1003.293,792.663,1003.293z"/>
		<path fill-rule="evenodd" clip-rule="evenodd" fill="#4F494D" d="M792.663,992.168c155.179,0,281.755-126.576,281.755-281.755
			c0-155.204-126.576-281.779-281.755-281.779c-155.203,0-281.751,126.576-281.751,281.779
			C510.912,865.592,637.46,992.168,792.663,992.168z"/>
		<path fill-rule="evenodd" clip-rule="evenodd" fill="#383135" d="M792.663,925.192c118.288,0,214.779-96.491,214.779-214.779
			c0-118.313-96.491-214.779-214.779-214.779c-118.313,0-214.779,96.466-214.779,214.779
			C577.885,828.701,674.351,925.192,792.663,925.192z"/>
		<path fill-rule="evenodd" clip-rule="evenodd" fill="#666264" d="M792.663,967.592c141.647,0,257.178-115.531,257.178-257.178
			c0-141.672-115.531-257.206-257.178-257.206c-141.645,0-257.178,115.534-257.178,257.206
			C535.485,852.061,651.019,967.592,792.663,967.592z"/>
		<path fill-rule="evenodd" clip-rule="evenodd" fill="#CDCBCA" d="M792.663,909.449c109.618,0,199.063-89.417,199.063-199.035
			c0-109.643-89.445-199.033-199.063-199.033c-109.643,0-199.06,89.389-199.06,199.033
			C593.603,820.032,683.02,909.449,792.663,909.449z"/>
		<path fill-rule="evenodd" clip-rule="evenodd" fill="#CDCBCA" d="M548.098,203.241h283.483c21.252,0,38.672,17.392,38.672,38.644
			v38.674H509.424v-38.674C509.424,220.633,526.843,203.241,548.098,203.241z"/>
		<path fill-rule="evenodd" clip-rule="evenodd" fill="#4F494D" d="M792.663,927.786c119.718,0,217.401-97.655,217.401-217.373
			c0-119.745-97.683-217.425-217.401-217.425c-119.743,0-217.425,97.68-217.425,217.425
			C575.238,830.131,672.921,927.786,792.663,927.786z"/>
		<path fill-rule="evenodd" clip-rule="evenodd" fill="#00A6D4" d="M792.663,897.997c103.327,0,187.584-84.257,187.584-187.584
			c0-103.324-84.257-187.584-187.584-187.584c-103.324,0-187.584,84.26-187.584,187.584
			C605.08,813.74,689.339,897.997,792.663,897.997z"/>
		<path fill-rule="evenodd" clip-rule="evenodd" fill="#00B1D3" d="M792.663,522.83c45.345,0,86.934,16.097,119.394,42.886
			c-17.444,137.892-130.492,245.945-270.626,255.638c-22.848-31.056-36.351-69.431-36.351-110.94
			C605.08,606.793,689.068,522.83,792.663,522.83z"/>
		<path fill-rule="evenodd" clip-rule="evenodd" fill="#6CC5D4" d="M733.954,731.884c37.051,0,67.272-30.248,67.272-67.299
			c0-37.051-30.221-67.299-67.272-67.299c-37.054,0-67.327,30.248-67.327,67.299C666.627,701.636,696.9,731.884,733.954,731.884z"/>
		<path fill-rule="evenodd" clip-rule="evenodd" fill="#00A8BE" d="M859.963,832.13c21.282,0,38.674-17.364,38.674-38.672
			c0-21.31-17.392-38.674-38.674-38.674c-21.308,0-38.672,17.364-38.672,38.674C821.291,814.766,838.655,832.13,859.963,832.13z"/>
		<path fill-rule="evenodd" clip-rule="evenodd" fill="#1A1413" d="M443.098,910.071c12.638,0,22.956-10.318,22.956-22.956
			c0-12.666-10.318-22.983-22.956-22.983c-12.638,0-22.956,10.318-22.956,22.983C420.142,899.753,430.46,910.071,443.098,910.071z"
			/>
		<path fill-rule="evenodd" clip-rule="evenodd" fill="#1A1413" d="M506.669,957.736c10.019,0,18.177-8.155,18.177-18.174
			c0-10.047-8.158-18.202-18.177-18.202s-18.202,8.155-18.202,18.202C488.467,949.581,496.65,957.736,506.669,957.736z"/>
		<path fill-rule="evenodd" clip-rule="evenodd" fill="#1A1413" d="M505.483,365.845h69.946c6.103,0,11.097,5.022,11.097,11.125
			v32.596c0,6.131-4.994,11.128-11.097,11.128h-69.946c-6.131,0-11.128-4.997-11.128-11.128V376.97
			C494.355,370.867,499.353,365.845,505.483,365.845z"/>
	</g>
</g>
</svg>
